<?xml version="1.0" standalone="no"?>
<!DOCTYPE svg PUBLIC "-//W3C//DTD SVG 1.1//EN" "http://www.w3.org/Graphics/SVG/1.1/DTD/svg11.dtd">
<svg xmlns="http://www.w3.org/2000/svg">
<metadata>Generated by Fontastic.me</metadata>
<defs>
<font id="waplugin" horiz-adv-x="512">
<font-face font-family="waplugin" units-per-em="512" ascent="480" descent="-32"/>
<missing-glyph horiz-adv-x="512" />

<glyph glyph-name="add-template" unicode="&#97;" d="M277 448l-149 0c-12 0-21-10-21-22l0-341c0-11 9-21 21-21l256 0c12 0 21 10 21 21l0 235-106 0c-12 0-22 9-22 21z m43-30l0-56 55 0z m-21 72c5 0 11-2 15-6l128-128c4-4 6-9 6-15l0-256c0-35-29-64-64-64l-256 0c-35 0-64 29-64 64l0 341c0 36 29 64 64 64z m-64-319l-43 0c-12 0-21 9-21 21 0 12 9 21 21 21l43 0 0 43c0 12 9 21 21 21 12 0 21-9 21-21l0-43 43 0c12 0 21-9 21-21 0-12-9-21-21-21l-43 0 0-43c0-12-9-21-21-21-12 0-21 9-21 21z"/>
<glyph glyph-name="angle-right" unicode="&#98;" d="M177 143c-8-8-8-22 0-30 8-8 22-8 30 0l128 128c8 8 8 22 0 30l-128 128c-8 8-22 8-30 0-8-9-8-22 0-30l113-113z"/>
<glyph glyph-name="bin" unicode="&#99;" d="M64 362l384 0c12 0 21 10 21 22 0 12-9 21-21 21l-384 0c-7 0-14-4-18-11-4-6-4-14 0-21 4-7 11-11 18-11z m320 22l0-299c0-11-10-21-21-21l-214 0c-11 0-21 10-21 21l0 299c0 7-4 14-11 18-6 4-14 4-21 0-6-4-11-11-10-18l0-299c0-35 28-64 63-64l214 0c35 0 64 29 64 64l0 299c-1 12-10 21-22 21-12 0-21-9-21-21z m-192 0l0 42c0 12 10 22 21 22l86 0c11 0 21-10 21-22l0-42c0-12 9-22 21-22 12 0 22 10 22 22l0 42c0 36-29 64-64 64l-86 0c-35 0-64-28-64-64l0-42c0-8 4-15 11-19 7-4 15-4 21 0 7 4 11 11 11 19z m0-107l0-128c0-11 10-21 21-21 12 0 22 10 22 21l0 128c0 12-10 21-22 21-11 0-21-9-21-21z m85 0l0-128c0-11 10-21 22-21 11 0 21 10 21 21l0 128c0 12-10 21-21 21-12 0-22-9-22-21z"/>
<glyph glyph-name="check" unicode="&#101;" d="M101 250c-6 5-14 7-21 5-8-2-13-7-15-15-2-7 0-15 5-21l107-106c8-8 22-8 30 0l235 234c5 6 7 14 5 21-2 8-7 13-15 15-7 2-15 0-21-5l-219-220z"/>
<glyph glyph-name="close" unicode="&#102;" d="M369 399l-256-256c-8-8-8-22 0-30 9-8 22-8 30 0l256 256c5 5 8 13 6 20-2 8-8 14-15 16-8 2-16-1-21-6z m-256-30l256-256c8-8 21-8 30 0 8 8 8 22 0 30l-256 256c-8 8-21 8-30 0-8-9-8-22 0-30z"/>
<glyph glyph-name="download" unicode="&#103;" d="M43 149l0-64c0-35 29-64 64-64l298 0c36 0 64 29 64 64l0 64c0 12-9 22-21 22-12 0-21-10-21-22l0-64c0-11-10-21-22-21l-298 0c-12 0-21 10-21 21l0 64c0 12-10 22-22 22-12 0-21-10-21-22z m213 52l-70 70c-6 5-13 8-21 6-7-2-13-8-15-15-2-8 0-16 6-21l85-85c8-9 22-9 30 0l85 85c8 8 8 21 0 30-8 8-21 8-30 0z m-21 268l0-298c0-12 9-22 21-22 12 0 21 10 21 22l0 298c0 12-9 21-21 21-12 0-21-9-21-21z"/>
<glyph glyph-name="edit" unicode="&#104;" d="M86 162l0-77 76 0 256 256-77 77z m270 301l107-107c8-8 8-22 0-30l-277-277c-4-4-10-6-15-6l-107 0c-12 0-21 9-21 21l0 107c0 5 2 11 6 15l277 277c9 8 22 8 30 0z"/>
<glyph glyph-name="edit-2" unicode="&#105;" d="M405 199l0-114c0-11-9-21-21-21l-298 0c-12 0-22 10-22 21l0 299c0 12 10 21 22 21l113 0c8 0 15 4 19 11 4 6 4 14 0 21-4 7-11 11-19 11l-113 0c-36 0-64-29-64-64l0-299c0-35 28-64 64-64l298 0c35 0 64 29 64 64l0 114c0 12-10 21-21 21-12 0-22-9-22-21z m-213 48l0-55 55 0 192 192-55 55z m207 237l85-85c9-9 9-22 0-30l-213-213c-4-4-9-7-15-7l-85 0c-12 0-22 10-22 22l0 85c0 6 3 11 7 15l213 213c8 8 22 8 30 0z"/>
<glyph glyph-name="eye" unicode="&#107;" d="M55 241c12-19 27-38 43-56 47-49 100-78 158-78 59 0 111 29 158 78 20 22 37 45 52 71-15 25-32 49-52 71-47 49-99 78-158 78-58 0-111-29-158-78-20-22-37-46-52-71 3-5 6-10 9-15z m-52 24c3 6 8 16 16 29 14 22 30 43 48 62 54 57 117 92 189 92 72 0 135-35 189-92 18-19 34-40 48-62 8-13 13-23 17-29 3-6 3-13 0-19-4-6-9-16-17-28-14-22-30-43-48-62-54-57-117-92-189-92-72 0-135 35-189 92-18 19-34 40-48 62-6 9-11 19-17 28-3 6-3 13 0 19z m253-94c-47 0-85 38-85 85 0 47 38 85 85 85 47 0 85-38 85-85 0-47-38-85-85-85z m0 42c24 0 43 19 43 43 0 23-19 42-43 42-24 0-43-19-43-42 0-24 19-43 43-43z"/>
<glyph glyph-name="eye-off" unicode="&#108;" d="M143 365c9 7 11 21 4 30-8 10-21 11-30 4-47-36-86-81-114-133-3-6-3-14 0-20 3-6 8-16 17-28 13-21 29-42 48-62 53-57 116-92 188-92 51 1 99 18 140 48 6 5 9 12 8 20-1 8-6 14-13 17-7 3-15 2-21-3-33-25-73-39-114-39-58 0-111 29-157 78-20 22-38 45-53 71 25 42 57 80 97 109z m285-163c-7-10-6-23 3-30 9-8 22-7 30 2 18 22 35 46 48 72 3 6 4 13 0 19-2 6-8 16-16 29-14 22-30 42-48 61-54 58-117 92-189 92-17 0-33-1-49-5-12-3-19-14-16-26 2-11 14-18 25-16 13 3 27 5 40 5 59 0 111-29 158-79 20-21 37-45 52-70-11-19-24-38-38-54z m-142 23c-11-11-27-16-42-12-15 3-27 15-31 31-4 15 1 31 13 41 8 8 9 22 1 30-8 9-22 10-31 1-22-21-32-53-24-83 8-30 31-53 62-61 30-8 62 1 83 24 8 9 7 22-1 30-9 8-22 8-30-1z m-279 250l468-469c9-8 22-8 30 1 8 8 9 21 1 29l-469 469c-5 6-13 8-21 6-7-2-13-8-15-15-2-8 0-16 6-21z"/>
<glyph glyph-name="file-excel-o" unicode="&#106;" d="M456 403c5-5 10-12 14-21 4-9 5-18 5-25l0-330c0-7-2-14-8-19-5-5-11-8-19-8l-384 0c-8 0-14 3-19 8-6 5-8 12-8 19l0 458c0 7 2 14 8 19 5 5 11 8 19 8l256 0c8 0 16-2 25-6 9-4 17-8 22-13z m-127 70l0-107 108 0c-2 5-4 9-7 11l-89 90c-2 2-6 4-12 6z m110-436l0 292-119 0c-8 0-14 3-19 8-6 5-8 12-8 20l0 118-220 0 0-438z m-280 66l0-30 80 0 0 30-21 0 29 46c1 2 2 3 3 5 1 2 2 3 2 4 1 1 1 1 1 1l1 0c0-1 1-2 1-3 1 0 1-1 2-2 0-1 1-1 1-2 1-1 2-2 2-3l31-46-22 0 0-30 83 0 0 30-19 0-55 78 56 81 19 0 0 31-80 0 0-31 21 0-29-45c-1-2-2-3-3-5-1-2-2-3-3-4l0-1-1 0c0 1 0 2-1 3-1 2-3 4-5 7l-30 45 21 0 0 31-82 0 0-31 19 0 54-78-55-81z"/>
<glyph glyph-name="filter" unicode="&#109;" d="M192 238l-165 196c-6 6-7 15-3 23 3 7 11 12 19 12l426 0c8 0 16-5 19-12 4-8 3-17-3-23l-165-196 0-174c0-7-4-14-10-18-6-4-14-4-21-1l-85 43c-7 3-12 11-12 19z m-103 188l141-166c3-4 5-9 5-14l0-126 42-21 0 147c0 5 2 10 5 14l141 166z"/>
<glyph glyph-name="message" unicode="&#111;" d="M134 164c4 4 10 7 15 7l256 0c12 0 22 9 22 21l0 213c0 12-10 21-22 21l-298 0c-12 0-21-9-21-21l0-289z m-55-115c-13-13-36-4-36 15l0 341c0 35 29 64 64 64l298 0c36 0 64-29 64-64l0-213c0-35-28-64-64-64l-247 0z"/>
<glyph glyph-name="pause" unicode="&#112;" d="M256 21c-129 0-234 105-234 235 0 129 105 234 234 234 129 0 234-105 234-234 0-130-105-235-234-235z m0 43c106 0 192 86 192 192 0 106-86 192-192 192-106 0-192-86-192-192 0-106 86-192 192-192z m-21 128l0 128c0 12-10 21-22 21-11 0-21-9-21-21l0-128c0-12 10-21 21-21 12 0 22 9 22 21z m85 0l0 128c0 12-10 21-21 21-12 0-22-9-22-21l0-128c0-12 10-21 22-21 11 0 21 9 21 21z"/>
<glyph glyph-name="play" unicode="&#113;" d="M256 21c-129 0-234 105-234 235 0 129 105 234 234 234 129 0 234-105 234-234 0-130-105-235-234-235z m0 43c106 0 192 86 192 192 0 106-86 192-192 192-106 0-192-86-192-192 0-106 86-192 192-192z m-21 146l68 46-68 45z m-10 149l128-85c6-4 10-11 10-18 0-7-4-14-10-18l-128-85c-6-4-15-5-22-1-7 4-11 11-11 19l0 170c0 8 4 15 11 19 7 4 16 3 22-1z"/>
<glyph glyph-name="plus" unicode="&#110;" d="M235 405l0-298c0-12 9-22 21-22 12 0 21 10 21 22l0 298c0 12-9 21-21 21-12 0-21-9-21-21z m-128-170l298 0c12 0 21 9 21 21 0 12-9 21-21 21l-298 0c-12 0-21-9-21-21 0-12 9-21 21-21z"/>
<glyph glyph-name="question-o" unicode="&#114;" d="M256 21c-129 0-234 105-234 235 0 129 105 234 234 234 129 0 234-105 234-234 0-130-105-235-234-235z m0 43c106 0 192 86 192 192 0 106-86 192-192 192-106 0-192-86-192-192 0-106 86-192 192-192z m0 64c-12 0-21 10-21 21 0 12 9 22 21 22 12 0 21-10 21-22 0-11-9-21-21-21z m-42 185c-2-8-9-13-16-15-8-1-15 2-20 8-5 6-7 14-4 21 14 39 54 63 95 56 41-7 71-43 71-85 0-27-17-48-42-65-11-8-24-14-37-19-11-3-23 3-27 14-4 11 2 23 14 27 9 3 18 8 26 13 15 10 23 20 23 31 0 20-15 38-36 42-20 3-40-9-47-28z"/>
<glyph glyph-name="save" unicode="&#115;" d="M171 426l0-64 149 0c12 0 21-9 21-21 0-12-9-21-21-21l-171 0c-11 0-21 9-21 21l0 85-21 0c-12 0-21-9-21-21l0-298c0-12 9-22 21-22l21 0 0 150c0 11 10 21 21 21l214 0c11 0 21-10 21-21l0-150 21 0c12 0 22 10 22 22l0 225-95 94z m170-341l0 128-170 0 0-128z m64-42l-298 0c-35 0-64 28-64 64l0 298c0 35 29 64 64 64l234 0c6 0 11-2 15-6l107-107c4-4 6-9 6-15l0-234c0-36-28-64-64-64z"/>
<glyph glyph-name="settings" unicode="&#116;" d="M256 171c-47 0-85 38-85 85 0 47 38 85 85 85 47 0 85-38 85-85 0-47-38-85-85-85z m0 42c24 0 43 19 43 43 0 23-19 42-43 42-24 0-43-19-43-42 0-24 19-43 43-43z m-119 191l-2 1c-8 8-22 8-30 0-8-8-8-22 0-30l1-2c17-16 21-41 12-61-8-21-29-36-52-37l-2 0c-12 0-21-9-21-21 0-12 9-21 21-21l4 0c22 0 43-14 51-34 10-21 5-46-11-63l-1-1c-9-8-9-22 0-30 8-8 22-8 30 0l1 1c17 16 42 21 61 12 22-8 37-29 37-52l0-2c0-12 10-21 22-21 11 0 21 9 21 21l0 4c0 22 13 42 34 51 21 10 46 5 63-11l1-1c8-9 22-9 30 0 8 8 8 21 0 30l-1 1c-17 17-21 41-12 63 9 20 29 34 52 34l2 0c12 0 21 9 21 21 0 12-9 21-21 21l-4 0c-22 0-43 14-52 34l-1 4 0 3c-7 20-2 42 13 57l1 2c9 8 9 21 0 30-8 8-22 8-30 0l-1-2c-17-16-41-20-62-11-21 9-35 29-35 52l0 2c0 11-9 21-21 21-12 0-21-10-21-21l0-4c0-23-14-43-35-52l-4-1-2 0c-20-7-42-2-57 13z m307-84l4 0c35 0 64-29 64-64 0-35-29-64-64-64l-2 0c-6 0-11-3-13-8-2-6-1-12 3-16l1-1c25-25 25-66 0-91-25-24-65-24-90 0l-1 2c-5 4-11 5-16 2-5-2-8-7-8-12l0-4c0-35-29-64-64-64-36 0-64 29-64 64 0 7-4 13-11 15-5 2-11 1-15-3l-1-1c-25-25-65-25-90 0-25 25-25 65 0 90l1 1c4 4 5 11 2 16-2 5-7 8-12 8l-4 0c-35 0-64 29-64 64 0 35 29 64 64 64 7 0 13 4 15 10 2 6 1 11-3 16l-1 1c-25 25-25 65 0 90 25 25 65 25 90 0l1-1c5-4 11-5 16-3l4 2c4 2 6 7 6 11l0 4c0 35 29 64 64 64 35 0 64-29 64-64l0-2c0-6 3-11 9-13 5-2 11-1 15 3l1 1c25 25 65 25 90 0 25-25 25-66 0-90l-1-2c-4-4-5-10-2-15l1-4c3-4 7-6 11-6z"/>
<glyph glyph-name="search" unicode="&#117;" d="M366 176l97-97c8-8 8-22 0-30-8-8-22-8-30 0l-97 97c-75-60-184-50-247 22-64 71-61 180 7 248 68 68 177 71 248 7 72-63 82-172 22-247z m-142-27c77 0 139 62 139 139 0 76-62 138-139 138-76 0-138-62-138-138 0-77 62-139 138-139z"/>
<glyph glyph-name="alert-triangle" unicode="&#118;" d="M201 440c12 19 33 31 55 31 22 0 43-12 55-31l180-301c12-20 12-44 1-64-12-20-33-32-55-32l-362 0c-23 0-43 12-55 32-11 20-11 44 1 64z m-144-323c-3-6-3-14 0-21 4-6 11-10 18-11l361 0c8 0 15 4 18 11 4 6 4 14 1 21l-181 301c-4 7-11 11-18 11-7 0-14-4-18-11z m178 32c0-11 9-21 21-21 12 0 21 10 21 21 0 12-9 22-21 22-12 0-21-10-21-22z m0 171l0-85c0-12 9-22 21-22 12 0 21 10 21 22l0 85c0 12-9 21-21 21-12 0-21-9-21-21z"/>
<glyph glyph-name="spinner" unicode="&#100;" d="M150 114c0-10-3-19-10-26-8-7-16-11-26-11-10 0-19 4-26 11-7 7-11 16-11 26 0 10 4 18 11 26 7 7 16 10 26 10 10 0 18-3 26-10 7-8 10-16 10-26z m143-59c0-10-4-19-11-26-7-7-16-11-26-11-10 0-19 4-26 11-7 7-11 16-11 26 0 10 4 19 11 26 7 7 16 10 26 10 10 0 19-3 26-10 7-7 11-16 11-26z m-202 201c0-10-3-19-10-26-7-7-16-11-26-11-10 0-19 4-26 11-7 7-11 16-11 26 0 10 4 19 11 26 7 7 16 11 26 11 10 0 19-4 26-11 7-7 10-16 10-26z m344-142c0-10-4-19-11-26-7-7-16-11-26-11-10 0-18 4-26 11-7 7-10 16-10 26 0 10 3 18 10 26 8 7 16 10 26 10 10 0 19-3 26-10 7-8 11-16 11-26z m-276 284c0-12-4-23-13-32-9-9-20-13-32-13-13 0-24 4-33 13-9 9-13 20-13 32 0 13 4 24 13 33 9 9 20 13 33 13 12 0 23-4 32-13 9-9 13-20 13-33z m335-142c0-10-4-19-11-26-7-7-16-11-26-11-10 0-19 4-26 11-7 7-10 16-10 26 0 10 3 19 10 26 7 7 16 11 26 11 10 0 19-4 26-11 7-7 11-16 11-26z m-183 201c0-15-5-28-16-39-11-10-24-16-39-16-15 0-28 6-39 16-11 11-16 24-16 39 0 15 5 28 16 39 11 11 24 16 39 16 15 0 28-5 39-16 11-11 16-24 16-39z m151-59c0-17-6-33-19-45-12-12-27-19-45-19-17 0-33 7-45 19-12 12-19 28-19 45 0 18 7 33 19 45 12 13 28 19 45 19 18 0 33-6 45-19 13-12 19-27 19-45z"/>
<glyph glyph-name="stop" unicode="&#119;" d="M256 21c-129 0-234 105-234 235 0 129 105 234 234 234 129 0 234-105 234-234 0-130-105-235-234-235z m0 43c106 0 192 86 192 192 0 106-86 192-192 192-106 0-192-86-192-192 0-106 86-192 192-192z m-43 234l0-85 86 0 0 85z m-21 43l128 0c12 0 21-9 21-21l0-128c0-12-9-21-21-21l-128 0c-12 0-21 9-21 21l0 128c0 12 9 21 21 21z"/>
<glyph glyph-name="upload" unicode="&#122;" d="M277 396l0-204c0-12-9-21-21-21-12 0-21 9-21 21l0 204-70-70c-9-8-22-8-30 0-9 9-9 22-1 30l107 107c8 8 22 8 30 0l107-107c5-5 7-13 5-21-2-7-7-13-15-15-7-2-15 1-21 6z m150-204c0 12 9 21 21 21 12 0 21-9 21-21l0-85c0-36-28-64-64-64l-298 0c-35 0-64 28-64 64l0 85c0 12 9 21 21 21 12 0 22-9 22-21l0-85c0-12 9-22 21-22l298 0c12 0 22 10 22 22z"/>
<glyph glyph-name="user" unicode="&#65;" d="M448 64l0 43c0 59-48 106-107 106l-170 0c-59 0-107-47-107-106l0-43c0-12 10-21 22-21 11 0 21 9 21 21l0 43c0 35 28 64 64 64l170 0c36 0 64-29 64-64l0-43c0-12 10-21 22-21 11 0 21 9 21 21z m-192 192c-59 0-107 48-107 106 0 59 48 107 107 107 59 0 107-48 107-107 0-58-48-106-107-106z m0 42c35 0 64 29 64 64 0 36-29 64-64 64-35 0-64-28-64-64 0-35 29-64 64-64z"/>
<glyph glyph-name="alert-octagon" unicode="&#66;" d="M64 335l0-159 113-112 158 0 113 112 0 159-113 113-158 0z m104 155l176 0c6 0 11-2 15-6l125-125c4-4 6-9 6-15l0-176c0-6-2-11-6-15l-125-125c-4-4-9-7-15-7l-176 0c-6 0-11 3-15 7l-125 125c-4 4-6 9-6 15l0 176c0 6 2 11 6 15l125 125c4 4 9 6 15 6z m67-319c0-12 9-22 21-22 12 0 21 10 21 22 0 11-9 21-21 21-12 0-21-10-21-21z m0 170l0-85c0-12 9-21 21-21 12 0 21 9 21 21l0 85c0 12-9 21-21 21-12 0-21-9-21-21z"/>
<glyph glyph-name="pie-chart" unicode="&#68;" d="M433 181c-34-79-116-126-202-115-85 11-153 78-165 163-12 85 34 168 113 203 11 4 16 17 11 28-4 11-17 16-28 11-96-42-153-144-138-248 15-104 97-186 202-200 104-13 205 45 246 142 4 10-1 23-12 27-10 5-23 0-27-11z m57 75c0-12-9-21-21-21l-213 0c-12 0-21 9-21 21l0 213c0 12 9 21 21 21 129 0 234-105 234-234z m-98 136c-31 30-71 50-115 54l0-169 170 0c-5 43-25 84-55 115z"/>
<glyph glyph-name="phonebook" unicode="&#69;" d="M468 352c7 0 12 5 12 12l0 40c0 7-5 12-12 12l-20 0 0 32c0 35-29 64-64 64l-288 0c-35 0-64-29-64-64l0-384c0-35 29-64 64-64l288 0c35 0 64 29 64 64l0 32 20 0c7 0 12 5 12 12l0 40c0 7-5 12-12 12l-20 0 0 64 20 0c7 0 12 5 12 12l0 40c0 7-5 12-12 12l-20 0 0 64z m-52-288c0-18-14-32-32-32l-288 0c-18 0-32 14-32 32l0 384c0 18 14 32 32 32l288 0c18 0 32-14 32-32z m-176 176c44 0 80 36 80 80 0 44-36 80-80 80-44 0-80-36-80-80 0-44 36-80 80-80z m0 128c27 0 48-22 48-48 0-27-21-48-48-48-26 0-48 21-48 48 0 26 22 48 48 48z m47-144c-20 0-25-7-47-7-22 0-27 7-47 7-21 0-42-9-54-27-7-11-11-24-11-38l0-39c0-4 4-8 8-8l16 0c4 0 8 4 8 8l0 39c0 7 2 14 6 20 6 8 16 13 27 13 13 0 21-7 47-7 26 0 34 7 47 7 11 0 22-5 27-13 4-6 6-13 6-20l0-39c0-4 4-8 8-8l16 0c5 0 8 4 8 8l0 39c0 14-4 27-11 38-12 18-33 27-54 27z"/>
<glyph glyph-name="angle-down" unicode="&#70;" d="M143 335c-8 8-21 8-30 0-8-9-8-22 0-30l128-128c8-8 22-8 30 0l128 128c5 5 8 13 6 20-2 8-8 14-15 16-8 2-16-1-21-6l-113-113z"/>
<glyph glyph-name="tag" unicode="&#71;" d="M421 273l-176 175-181 0 0-181 175-176c4-4 10-6 15-6 6 0 11 2 15 6l152 152c8 8 8 21 0 30z m30-60l-152-152c-25-24-65-24-90 0l-181 182c-4 4-6 9-6 15l0 211c0 12 9 21 21 21l211 0c6 0 11-2 15-6l182-182c24-24 24-64 0-89z m-323 149c0-7 4-14 11-18 6-4 15-4 21 0 7 4 11 11 11 18 0 8-4 15-11 19-6 4-15 4-21 0-7-4-11-11-11-19z"/>
<glyph glyph-name="megaphone" unicode="&#72;" d="M498 455l-14 0c-8 0-15-6-15-14l0-12-427-99c-1 7-7 11-14 11l-14 0c-8 0-14-6-14-14l0-142c0-8 6-14 14-14l14 0c7 0 13 4 14 11l102-24c-1-5-2-10-2-16 0-47 38-85 86-85 39 0 72 27 81 63l160-37 0-12c0-8 7-14 15-14l14 0c8 0 14 6 14 14l0 370c0 8-6 14-14 14z m-270-355c-24 0-43 19-43 42 0 2 1 4 1 6l82-19c-6-17-21-29-40-29z m-185 125l0 62 426 99 0-260z"/>
<glyph glyph-name="users" unicode="&#73;" d="M384 64l0 43c0 59-48 106-107 106l-170 0c-59 0-107-47-107-106l0-43c0-12 10-21 22-21 11 0 21 9 21 21l0 43c0 35 29 64 64 64l170 0c36 0 64-29 64-64l0-43c0-12 10-21 22-21 11 0 21 9 21 21z m-192 192c-59 0-106 48-106 106 0 59 47 107 106 107 59 0 107-48 107-107 0-58-48-106-107-106z m0 42c35 0 64 29 64 64 0 36-29 64-64 64-35 0-64-28-64-64 0-35 29-64 64-64z m320-234l0 43c0 48-33 91-80 103-8 2-16 0-21-6-5-5-8-13-5-21 2-7 8-13 15-14 28-8 48-33 48-62l0-43c0-12 10-21 21-21 12 0 22 9 22 21z m-176 360c28-7 48-32 48-62 0-29-20-54-48-62-11-3-18-14-15-26 3-11 14-18 26-15 47 12 80 55 80 103 0 49-33 92-80 104-12 2-23-4-26-16-3-11 4-23 15-26z"/>
<glyph glyph-name="copy" unicode="&#74;" d="M213 277l0-192c0-5 3-11 7-15 4-4 9-6 15-6l191 0c6 0 12 2 16 6 4 4 6 10 6 15l0 192c0 6-2 11-6 15-4 4-10 7-16 6l-191 0c-6 1-11-2-15-6-4-4-7-9-7-15z m-42 0c0 17 6 33 18 45 12 12 29 19 46 19l191 0c17 0 34-7 46-19 12-12 18-28 18-45l0-192c0-17-6-33-18-45-12-12-29-19-46-19l-191 0c-17 0-34 7-46 19-12 12-18 28-18 45z m-64-64l-21 0c-12 0-22 10-22 22l0 191c0 12 10 22 22 22l191 0c12 0 22-10 22-22l0-21c0-12 9-21 21-21 12 0 21 9 21 21l0 21c0 36-28 64-64 64l-191 0c-36 0-64-28-64-64l0-191c0-36 28-64 64-64l21 0c12 0 21 9 21 21 0 12-9 21-21 21z"/>
<glyph glyph-name="paperclip" unicode="&#75;" d="M456 116c0-22-8-41-23-56-15-15-33-22-56-22-25 0-48 9-67 28l-222 222c-21 22-32 48-32 77 0 31 10 56 31 78 21 21 47 31 77 31 30 0 56-10 78-32l173-173c2-2 3-4 3-6 0-3-3-8-9-14-6-6-10-8-13-8-2 0-5 1-7 2l-173 174c-15 15-32 22-51 22-21 0-38-7-52-22-13-14-20-31-20-51 0-20 7-38 21-52l222-222c12-12 26-18 41-18 13 0 23 4 31 12 8 8 12 18 12 30 0 16-6 30-18 42l-166 166c-5 4-11 7-17 7-6 0-11-2-14-6-4-3-6-8-6-14 0-6 3-11 8-16l117-118c2-1 3-4 3-6 0-3-3-7-9-13-6-6-11-9-14-9-2 0-4 1-6 3l-117 117c-12 11-18 26-18 42 0 16 5 29 16 40 11 11 24 16 40 16 17 0 31-6 42-18l166-166c19-18 29-41 29-67z"/>
<glyph glyph-name="bold" unicode="&#76;" d="M372 264c42-24 63-73 51-120-12-47-55-80-103-80l-192 0c-12 0-21 10-21 21l0 341c0 12 9 22 21 22l171 0c43 0 82-27 99-67 16-41 6-87-26-117z m-223 141l0-128 150 0c35 0 64 29 64 64 0 35-29 64-64 64z m0-298l171 0c35 0 64 28 64 64 0 35-29 64-64 64l-171 0z"/>
<glyph glyph-name="italic" unicode="&#77;" d="M335 405l70 0c12 0 21 10 21 21 0 12-9 22-21 22l-192 0c-7 0-14-4-18-11-4-7-4-15 0-21 4-7 11-11 18-11l76 0-112-298-70 0c-12 0-21-10-21-22 0-11 9-21 21-21l192 0c11 0 21 10 21 21 0 12-10 22-21 22l-76 0z"/>
<glyph glyph-name="strikethrough" unicode="&#78;" d="M503 256c3 0 5-1 6-3 2-1 3-3 3-6l0-18c0-3-1-5-3-7-1-2-3-3-6-3l-494 0c-3 0-5 1-6 3-2 2-3 4-3 7l0 18c0 3 1 5 3 6 1 2 3 3 6 3z m-365 18c-5 7-10 15-15 23-9 19-13 37-13 54 0 34 12 64 38 88 25 24 63 36 112 36 10 0 26-1 48-5 13-2 29-7 51-14 1-7 3-18 6-33 2-24 4-41 4-53 0-3-1-7-2-13l-3 0-24 1-4 1c-10 28-20 48-30 58-16 18-36 26-60 26-21 0-39-5-52-16-12-11-19-25-19-42 0-14 6-27 19-40 13-13 39-25 80-37 13-4 29-10 49-19 11-5 20-10 27-15z m145-73l117 0c2-7 2-16 2-26 0-21-4-41-11-61-5-10-12-20-21-29-7-7-17-15-31-24-15-9-30-15-44-18-15-4-34-6-58-6-21 0-40 2-55 6l-40 12c-11 3-18 5-21 8-1 1-2 3-2 6l0 4c0 20 0 35-1 44 0 6 0 12 0 20l1 10 0 13 29 0c3-6 6-13 9-20 2-7 5-12 6-16 1-4 3-6 4-8 6-11 14-20 22-27 9-6 19-12 30-16 12-4 24-6 38-6 12 0 26 2 40 8 15 5 26 13 35 24 9 12 13 24 13 37 0 16-8 31-23 45-6 5-20 12-39 20z"/>
<glyph glyph-name="send" unicode="&#67;" d="M462 489c7 3 16 1 22-5 6-6 8-15 5-22l-149-426c-6-19-32-20-40-2l-81 184-185 82c-17 8-16 34 2 40z m-74-71l-287-101 129-57z m30-30l-158-158 58-129z"/>
<glyph glyph-name="bin-solid" unicode="&#79;" d="M201 119l0 201c0 3-1 5-2 7-2 1-4 2-7 2l-18 0c-3 0-5-1-7-2-2-2-2-4-2-7l0-201c0-3 0-5 2-7 2-1 4-2 7-2l18 0c3 0 5 1 7 2 1 2 2 4 2 7z m73 0l0 201c0 3-1 5-2 7-2 1-4 2-7 2l-18 0c-3 0-5-1-7-2-1-2-2-4-2-7l0-201c0-3 1-5 2-7 2-1 4-2 7-2l18 0c3 0 5 1 7 2 1 2 2 4 2 7z m73 0l0 201c0 3 0 5-2 7-2 1-4 2-7 2l-18 0c-3 0-5-1-7-2-1-2-2-4-2-7l0-201c0-3 1-5 2-7 2-1 4-2 7-2l18 0c3 0 5 1 7 2 2 2 2 4 2 7z m-155 283l128 0-14 34c-1 1-3 2-5 3l-90 0c-2-1-4-2-5-3z m265-9l0-18c0-3-1-5-2-7-2-1-4-2-7-2l-27 0 0-271c0-16-5-30-14-41-9-12-20-17-32-17l-238 0c-12 0-23 5-32 16-9 11-14 25-14 41l0 272-27 0c-3 0-5 1-7 2-1 2-2 4-2 7l0 18c0 3 1 5 2 7 2 1 4 2 7 2l88 0 20 48c3 7 8 13 16 18 7 5 15 7 22 7l92 0c7 0 15-2 22-7 8-5 13-11 16-18l20-48 88 0c3 0 5-1 7-2 1-2 2-4 2-7z"/>
<glyph glyph-name="paperplane-filled" unicode="&#80;" d="M23 48l485 207-485 208 1-169 290-39-290-38z"/>
<glyph glyph-name="crown" unicode="&#82;" d="M238 366c-19-53-40-78-59-80-21-2-40 7-57 30-1 1-2 3-4 4 11 14 10 33-1 46-11 13-30 17-45 9-16-7-24-25-20-42 4-16 19-28 36-28l1-5 30-120c6-25 29-43 54-43l166 0c25 0 48 18 54 43l30 120c0 2 1 3 1 5 17 0 32 12 36 28 4 17-4 35-20 42-15 8-34 4-45-9-11-13-12-32-1-46-2-1-3-2-4-4-18-23-37-32-57-30-19 2-39 28-59 80 15 8 22 25 18 41-4 17-19 28-36 28-17 0-32-11-36-28-4-16 3-33 18-41z m130-257c10 0 18-8 18-18 0-11-8-19-18-19l-224 0c-10 0-18 8-18 19 0 10 8 18 18 18z"/>
<glyph glyph-name="optout" unicode="&#83;" d="M276 459l-10 0c-29 0-56-7-82-19-63-30-102-94-102-165 0-26 5-53 17-77l-38-130 130 40c22-11 46-16 70-18l0 35c-20 0-43 6-61 15l-7 3-82-24 24 82-4 6c-10 20-15 44-15 66 0 58 32 109 84 135 20 10 42 15 66 15l9 0c77-3 136-65 141-140l0-5 35 0 0 7c-6 94-81 169-175 174z m19-282l-13-29c0-1-2-3-4-5-2-1-2-1-3-1-2 0-4 0-5 0-2 0-4 0-5 1 0 0-2 2-6 4l0 29c2-2 4-2 6-4l3 9-9 7 0 29c2 0 6-2 7-4l26-22c3-3 5-8 3-14z m96-3l54 55c7 7 7 17 0 24-6 6-17 6-23 0l-55-55-55 55c-7 6-17 6-24 0-6-7-6-17 0-24l55-55-55-55c-6-6-6-17 0-23 4-4 9-6 12-6 4 0 9 2 12 6l55 54 55-54c3-4 8-6 11-6 4 0 9 2 12 6 7 6 7 17 0 23z m-99 17l-26 22c-1 2-3 4-7 4-1 0-3 0-6 0l-26-12c-17 20-32 49-32 85l34 15c3 2 7 6 7 9l3 27c0 5-2 11-7 14l-32 15c-4 2-7 2-11 0-3-1-5-3-6-6-53-134 51-205 75-219 3-2 5-3 5-3 2 0 3-2 5-2 2 0 3 0 5 0 2 0 2 0 3 2 2 1 4 3 4 5l14 29c3 7 1 12-2 15z m-89 150l12-5-2-12-15-7c2 9 3 16 5 24z m62-170c-2 1-4 1-6 3-5 3-10 7-15 12l12 5 12-12z"/>
<glyph glyph-name="templates" unicode="&#120;" d="M282 358c-11 2-19-3-21-12l-32-126c-2-8 3-17 13-20 2 0 4 0 5 0 7 0 14 5 18 12l32 126c-2 8-7 17-15 20z m-185-300c-1 0-5 0-7 2-6 3-10 8-10 15l0 295c0 31 24 55 55 55l258 0c30 0 54-24 54-55l0-184c0-31-24-55-54-55l-216 0-68-68c-3-3-7-5-12-5z m38 333c-12 0-21-9-21-21l0-254 45 44c3 4 7 6 12 6l222 0c11 0 20 8 20 20l0 184c0 12-9 21-20 21z"/>
<glyph glyph-name="chatbot" unicode="&#121;" d="M154 134l51 0 0 39-51 0z m307 173l-26 0c0 43-34 77-77 77l-83 0 0 58c0 10-8 19-19 19-11 0-19-9-19-19l0-58-83 0c-43 0-77-34-77-77l-26 0c-21 0-38-17-38-38l0-103c0-21 17-38 38-38l26 0c0-42 34-77 77-77l204 0c43 0 77 35 77 77l26 0c21 0 38 17 38 38l0 103c0 21-17 38-38 38z m-384-141l-26 0 0 103 26 0z m320-38c0-21-17-38-39-38l-204 0c-22 0-39 17-39 38l0 179c0 21 17 39 39 39l204 0c22 0 39-18 39-39z m64 38l-26 0 0 103 26 0z m-269 128c-21 0-38-17-38-38 0-21 17-38 38-38 21 0 38 17 38 38 0 21-17 38-38 38z m128 0c-21 0-38-17-38-38 0-21 17-38 38-38 21 0 38 17 38 38 0 21-17 38-38 38z m-13-160l51 0 0 39-51 0z m-77 0l52 0 0 39-52 0z"/>
<glyph glyph-name="angle-up" unicode="&#81;" d="M369 177c8-8 21-8 30 0 8 8 8 22 0 30l-128 128c-8 8-22 8-30 0l-128-128c-8-8-8-22 0-30 9-8 22-8 30 0l113 113z"/>
<glyph glyph-name="clock" unicode="&#84;" d="M256 21c-129 0-234 105-234 235 0 129 105 234 234 234 129 0 234-105 234-234 0-130-105-235-234-235z m0 43c106 0 192 86 192 192 0 106-86 192-192 192-106 0-192-86-192-192 0-106 86-192 192-192z m21 320c0 12-9 21-21 21-12 0-21-9-21-21l0-128c0-6 2-11 6-15l64-64c8-8 22-8 30 0 8 8 8 22 0 30l-58 58z"/>
<glyph glyph-name="check-fa" unicode="&#85;" d="M477 350c0-7-2-14-8-19l-206-207-39-39c-6-5-12-8-20-8-7 0-14 3-19 8l-142 142c-6 6-8 12-8 20 0 7 2 14 8 19l38 39c6 5 12 8 20 8 7 0 14-3 19-8l84-84 188 188c5 5 12 8 19 8 8 0 14-3 20-8l38-39c6-6 8-12 8-20z"/>
<glyph glyph-name="plus-square" unicode="&#86;" d="M86 405l0-298c0-12 9-22 21-22l298 0c12 0 22 10 22 22l0 298c0 12-10 21-22 21l-298 0c-12 0-21-9-21-21z m-43 0c0 35 28 64 64 64l298 0c36 0 64-29 64-64l0-298c0-36-28-64-64-64l-298 0c-36 0-64 28-64 64z m192-64l0-170c0-12 9-22 21-22 12 0 21 10 21 22l0 170c0 12-9 21-21 21-12 0-21-9-21-21z m-64-106l170 0c12 0 22 9 22 21 0 12-10 21-22 21l-170 0c-12 0-22-9-22-21 0-12 10-21 22-21z"/>
<glyph glyph-name="plus-circle" unicode="&#87;" d="M256 21c-129 0-234 105-234 235 0 129 105 234 234 234 129 0 234-105 234-234 0-130-105-235-234-235z m0 43c106 0 192 86 192 192 0 106-86 192-192 192-106 0-192-86-192-192 0-106 86-192 192-192z m-21 277l0-170c0-12 9-22 21-22 12 0 21 10 21 22l0 170c0 12-9 21-21 21-12 0-21-9-21-21z m-64-106l170 0c12 0 22 9 22 21 0 12-10 21-22 21l-170 0c-12 0-22-9-22-21 0-12 10-21 22-21z"/>
</font>
</defs>
</svg>
